<svg width="163" height="21" viewBox="0 0 163 21" fill="none" xmlns="http://www.w3.org/2000/svg">
<path d="M0.611816 11.25C0.611816 9.53333 0.99515 8 1.76182 6.65C2.54515 5.28333 3.60348 4.225 4.93682 3.475C6.28682 2.70833 7.79515 2.325 9.46182 2.325C11.4118 2.325 13.1202 2.825 14.5868 3.825C16.0535 4.825 17.0785 6.20833 17.6618 7.975H13.6368C13.2368 7.14167 12.6702 6.51667 11.9368 6.1C11.2202 5.68333 10.3868 5.475 9.43682 5.475C8.42015 5.475 7.51182 5.71667 6.71182 6.2C5.92848 6.66667 5.31182 7.33333 4.86182 8.2C4.42848 9.06667 4.21182 10.0833 4.21182 11.25C4.21182 12.4 4.42848 13.4167 4.86182 14.3C5.31182 15.1667 5.92848 15.8417 6.71182 16.325C7.51182 16.7917 8.42015 17.025 9.43682 17.025C10.3868 17.025 11.2202 16.8167 11.9368 16.4C12.6702 15.9667 13.2368 15.3333 13.6368 14.5H17.6618C17.0785 16.2833 16.0535 17.675 14.5868 18.675C13.1368 19.6583 11.4285 20.15 9.46182 20.15C7.79515 20.15 6.28682 19.775 4.93682 19.025C3.60348 18.2583 2.54515 17.2 1.76182 15.85C0.99515 14.5 0.611816 12.9667 0.611816 11.25ZM26.8013 20.225C25.4679 20.225 24.2679 19.9333 23.2013 19.35C22.1346 18.75 21.2929 17.9083 20.6763 16.825C20.0763 15.7417 19.7763 14.4917 19.7763 13.075C19.7763 11.6583 20.0846 10.4083 20.7013 9.325C21.3346 8.24167 22.1929 7.40833 23.2763 6.825C24.3596 6.225 25.5679 5.925 26.9013 5.925C28.2346 5.925 29.4429 6.225 30.5263 6.825C31.6096 7.40833 32.4596 8.24167 33.0763 9.325C33.7096 10.4083 34.0263 11.6583 34.0263 13.075C34.0263 14.4917 33.7013 15.7417 33.0513 16.825C32.4179 17.9083 31.5513 18.75 30.4513 19.35C29.3679 19.9333 28.1513 20.225 26.8013 20.225ZM26.8013 17.175C27.4346 17.175 28.0263 17.025 28.5763 16.725C29.1429 16.4083 29.5929 15.9417 29.9263 15.325C30.2596 14.7083 30.4263 13.9583 30.4263 13.075C30.4263 11.7583 30.0763 10.75 29.3763 10.05C28.6929 9.33333 27.8513 8.975 26.8513 8.975C25.8513 8.975 25.0096 9.33333 24.3263 10.05C23.6596 10.75 23.3263 11.7583 23.3263 13.075C23.3263 14.3917 23.6513 15.4083 24.3013 16.125C24.9679 16.825 25.8013 17.175 26.8013 17.175ZM44.2687 5.95C45.9187 5.95 47.252 6.475 48.2687 7.525C49.2853 8.55833 49.7937 10.0083 49.7937 11.875V20H46.2937V12.35C46.2937 11.25 46.0187 10.4083 45.4687 9.825C44.9187 9.225 44.1687 8.925 43.2187 8.925C42.252 8.925 41.4853 9.225 40.9187 9.825C40.3687 10.4083 40.0937 11.25 40.0937 12.35V20H36.5937V6.15H40.0937V7.875C40.5603 7.275 41.152 6.80833 41.8687 6.475C42.602 6.125 43.402 5.95 44.2687 5.95ZM58.422 20.225C57.2886 20.225 56.272 20.025 55.372 19.625C54.472 19.2083 53.7553 18.65 53.222 17.95C52.7053 17.25 52.422 16.475 52.372 15.625H55.897C55.9636 16.1583 56.222 16.6 56.672 16.95C57.1386 17.3 57.7136 17.475 58.397 17.475C59.0636 17.475 59.5803 17.3417 59.947 17.075C60.3303 16.8083 60.522 16.4667 60.522 16.05C60.522 15.6 60.2886 15.2667 59.822 15.05C59.372 14.8167 58.647 14.5667 57.647 14.3C56.6136 14.05 55.7636 13.7917 55.097 13.525C54.447 13.2583 53.8803 12.85 53.397 12.3C52.9303 11.75 52.697 11.0083 52.697 10.075C52.697 9.30833 52.9136 8.60833 53.347 7.975C53.797 7.34167 54.4303 6.84167 55.247 6.475C56.0803 6.10833 57.0553 5.925 58.172 5.925C59.822 5.925 61.1386 6.34167 62.122 7.175C63.1053 7.99167 63.647 9.1 63.747 10.5H60.397C60.347 9.95 60.1136 9.51667 59.697 9.2C59.297 8.86667 58.7553 8.7 58.072 8.7C57.4386 8.7 56.947 8.81667 56.597 9.05C56.2636 9.28333 56.097 9.60833 56.097 10.025C56.097 10.4917 56.3303 10.85 56.797 11.1C57.2636 11.3333 57.9886 11.575 58.972 11.825C59.972 12.075 60.797 12.3333 61.447 12.6C62.097 12.8667 62.6553 13.2833 63.122 13.85C63.6053 14.4 63.8553 15.1333 63.872 16.05C63.872 16.85 63.647 17.5667 63.197 18.2C62.7636 18.8333 62.1303 19.3333 61.297 19.7C60.4803 20.05 59.522 20.225 58.422 20.225ZM79.82 6.15V20H76.295V18.25C75.845 18.85 75.2534 19.325 74.52 19.675C73.8034 20.0083 73.02 20.175 72.17 20.175C71.0867 20.175 70.1284 19.95 69.295 19.5C68.4617 19.0333 67.8034 18.3583 67.32 17.475C66.8534 16.575 66.62 15.5083 66.62 14.275V6.15H70.12V13.775C70.12 14.875 70.395 15.725 70.945 16.325C71.495 16.9083 72.245 17.2 73.195 17.2C74.1617 17.2 74.92 16.9083 75.47 16.325C76.02 15.725 76.295 14.875 76.295 13.775V6.15H79.82ZM86.7733 1.5V20H83.2733V1.5H86.7733ZM94.3063 9.025V15.725C94.3063 16.1917 94.4147 16.5333 94.6313 16.75C94.8647 16.95 95.248 17.05 95.7813 17.05H97.4063V20H95.2063C92.2563 20 90.7813 18.5667 90.7813 15.7V9.025H89.1313V6.15H90.7813V2.725H94.3063V6.15H97.4063V9.025H94.3063ZM99.0237 13.025C99.0237 11.625 99.2987 10.3833 99.8487 9.3C100.415 8.21667 101.174 7.38333 102.124 6.8C103.09 6.21667 104.165 5.925 105.349 5.925C106.382 5.925 107.282 6.13333 108.049 6.55C108.832 6.96667 109.457 7.49167 109.924 8.125V6.15H113.449V20H109.924V17.975C109.474 18.625 108.849 19.1667 108.049 19.6C107.265 20.0167 106.357 20.225 105.324 20.225C104.157 20.225 103.09 19.925 102.124 19.325C101.174 18.725 100.415 17.8833 99.8487 16.8C99.2987 15.7 99.0237 14.4417 99.0237 13.025ZM109.924 13.075C109.924 12.225 109.757 11.5 109.424 10.9C109.09 10.2833 108.64 9.81667 108.074 9.5C107.507 9.16667 106.899 9 106.249 9C105.599 9 104.999 9.15833 104.449 9.475C103.899 9.79167 103.449 10.2583 103.099 10.875C102.765 11.475 102.599 12.1917 102.599 13.025C102.599 13.8583 102.765 14.5917 103.099 15.225C103.449 15.8417 103.899 16.3167 104.449 16.65C105.015 16.9833 105.615 17.15 106.249 17.15C106.899 17.15 107.507 16.9917 108.074 16.675C108.64 16.3417 109.09 15.875 109.424 15.275C109.757 14.6583 109.924 13.925 109.924 13.075ZM120.942 9.025V15.725C120.942 16.1917 121.05 16.5333 121.267 16.75C121.5 16.95 121.884 17.05 122.417 17.05H124.042V20H121.842C118.892 20 117.417 18.5667 117.417 15.7V9.025H115.767V6.15H117.417V2.725H120.942V6.15H124.042V9.025H120.942ZM128.334 4.5C127.718 4.5 127.201 4.30833 126.784 3.925C126.384 3.525 126.184 3.03333 126.184 2.45C126.184 1.86667 126.384 1.38333 126.784 0.999999C127.201 0.599999 127.718 0.399999 128.334 0.399999C128.951 0.399999 129.459 0.599999 129.859 0.999999C130.276 1.38333 130.484 1.86667 130.484 2.45C130.484 3.03333 130.276 3.525 129.859 3.925C129.459 4.30833 128.951 4.5 128.334 4.5ZM130.059 6.15V20H126.559V6.15H130.059ZM139.667 20.225C138.334 20.225 137.134 19.9333 136.067 19.35C135.001 18.75 134.159 17.9083 133.542 16.825C132.942 15.7417 132.642 14.4917 132.642 13.075C132.642 11.6583 132.951 10.4083 133.567 9.325C134.201 8.24167 135.059 7.40833 136.142 6.825C137.226 6.225 138.434 5.925 139.767 5.925C141.101 5.925 142.309 6.225 143.392 6.825C144.476 7.40833 145.326 8.24167 145.942 9.325C146.576 10.4083 146.892 11.6583 146.892 13.075C146.892 14.4917 146.567 15.7417 145.917 16.825C145.284 17.9083 144.417 18.75 143.317 19.35C142.234 19.9333 141.017 20.225 139.667 20.225ZM139.667 17.175C140.301 17.175 140.892 17.025 141.442 16.725C142.009 16.4083 142.459 15.9417 142.792 15.325C143.126 14.7083 143.292 13.9583 143.292 13.075C143.292 11.7583 142.942 10.75 142.242 10.05C141.559 9.33333 140.717 8.975 139.717 8.975C138.717 8.975 137.876 9.33333 137.192 10.05C136.526 10.75 136.192 11.7583 136.192 13.075C136.192 14.3917 136.517 15.4083 137.167 16.125C137.834 16.825 138.667 17.175 139.667 17.175ZM157.135 5.95C158.785 5.95 160.118 6.475 161.135 7.525C162.152 8.55833 162.66 10.0083 162.66 11.875V20H159.16V12.35C159.16 11.25 158.885 10.4083 158.335 9.825C157.785 9.225 157.035 8.925 156.085 8.925C155.118 8.925 154.352 9.225 153.785 9.825C153.235 10.4083 152.96 11.25 152.96 12.35V20H149.46V6.15H152.96V7.875C153.427 7.275 154.018 6.80833 154.735 6.475C155.468 6.125 156.268 5.95 157.135 5.95Z" fill="#37393F"/>
</svg>
